<?xml version="1.0" encoding="UTF-8"?>
<svg id="Layer_1" xmlns="http://www.w3.org/2000/svg" version="1.1" viewBox="0 0 16 16">
  <!-- Generator: Adobe Illustrator 30.0.0, SVG Export Plug-In . SVG Version: 2.1.1 Build 123)  -->
  <defs>
    <style>
      .st0 {
        fill: #fff;
      }
    </style>
  </defs>
  <path class="st0" d="M8.71,8l3.65-3.65c.2-.2.2-.51,0-.71-.19-.2-.51-.2-.71,0l-3.65,3.65-3.65-3.65c-.2-.2-.51-.2-.71,0-.2.19-.2.51,0,.71l3.65,3.65-3.65,3.65c-.2.19-.2.51,0,.71.1.1.23.15.35.15s.26-.05.35-.15l3.65-3.65,3.65,3.65c.1.1.23.15.35.15s.26-.05.35-.15c.2-.19.2-.51,0-.71l-3.65-3.65h0Z"/>
</svg>